<?xml version="1.0" standalone="no"?>
<!DOCTYPE svg PUBLIC "-//W3C//DTD SVG 20010904//EN"
 "http://www.w3.org/TR/2001/REC-SVG-20010904/DTD/svg10.dtd">
<svg version="1.0" xmlns="http://www.w3.org/2000/svg"
 width="512.000000pt" height="512.000000pt" viewBox="0 0 512.000000 512.000000"
 preserveAspectRatio="xMidYMid meet">
<metadata>
Created by potrace 1.14, written by Peter Selinger 2001-2017
</metadata>
<g transform="translate(0.000000,512.000000) scale(0.100000,-0.100000)"
fill="#000000" stroke="none">
<path d="M0 2560 l0 -2560 2560 0 2560 0 0 2560 0 2560 -2560 0 -2560 0 0
-2560z m1788 1852 c390 -102 622 -406 622 -817 0 -148 -26 -268 -83 -387 -51
-106 -74 -139 -155 -221 -103 -106 -239 -181 -398 -223 -60 -15 -129 -18 -511
-21 l-443 -4 0 851 0 851 443 -4 c415 -3 447 -5 525 -25z m2131 -414 c88 -244
228 -626 310 -850 l148 -408 -283 0 -282 0 -42 125 -42 125 -283 0 -284 0 -38
-122 -39 -123 -282 -3 c-155 -1 -282 -1 -282 1 0 1 137 378 305 837 168 459
307 841 310 848 3 9 75 12 313 12 l309 0 162 -442z m-2084 -1641 c255 -73 407
-252 422 -497 13 -216 -93 -402 -281 -496 -42 -20 -76 -40 -76 -43 0 -3 81
-148 180 -321 l179 -315 -292 -3 c-229 -2 -294 0 -300 10 -5 7 -77 144 -160
303 l-152 290 -3 -302 -2 -303 -265 0 -265 0 0 851 0 850 478 -3 c413 -4 485
-6 537 -21z m1285 -14 c75 -274 339 -1123 343 -1108 130 436 337 1135 337
1139 0 4 128 6 285 6 157 0 285 -3 284 -7 0 -5 -127 -386 -283 -848 l-283
-840 -347 0 -348 0 -278 825 c-152 454 -280 835 -284 848 l-7 22 285 0 285 0
11 -37z"/>
<path d="M1350 3595 l0 -377 128 4 c118 3 132 5 192 34 110 53 168 129 191
250 13 70 6 181 -17 247 -23 69 -99 148 -176 182 -56 26 -77 29 -190 33 l-128
4 0 -377z"/>
<path d="M3372 3636 c-40 -124 -72 -227 -72 -230 0 -3 67 -6 149 -6 l148 0
-73 226 c-40 125 -75 228 -77 230 -2 2 -35 -97 -75 -220z"/>
<path d="M1350 1791 l0 -141 138 0 c118 0 141 3 169 20 36 21 47 40 57 89 9
48 -9 102 -44 136 l-31 30 -145 3 -144 3 0 -140z"/>
</g>
</svg>
